<svg id="Layer_1" data-name="Layer 1" xmlns="http://www.w3.org/2000/svg" xmlns:xlink="http://www.w3.org/1999/xlink" viewBox="0 0 568.83 156.77"><defs><style>.cls-1,.cls-10,.cls-11,.cls-21,.cls-22,.cls-7{fill:none;}.cls-2,.cls-3{font-size:9px;font-family:AvenirLTStd-Roman, Avenir LT Std;}.cls-2,.cls-23{fill:#4d4d4d;}.cls-4{clip-path:url(#clip-path);}.cls-5{fill:#fff;}.cls-6{fill:#ccc;}.cls-7{stroke:red;stroke-width:2.67px;}.cls-10,.cls-11,.cls-21,.cls-7{stroke-linejoin:round;}.cls-8{fill:#969696;}.cls-9{fill:#525252;}.cls-10,.cls-11{stroke:#bfbfbf;stroke-width:1.07px;}.cls-10{opacity:0.5;}.cls-11{stroke-linecap:round;}.cls-12{clip-path:url(#clip-path-2);}.cls-13{clip-path:url(#clip-path-3);}.cls-14{clip-path:url(#clip-path-4);}.cls-15{clip-path:url(#clip-path-5);}.cls-16{clip-path:url(#clip-path-6);}.cls-17{clip-path:url(#clip-path-7);}.cls-18{clip-path:url(#clip-path-8);}.cls-19{clip-path:url(#clip-path-9);}.cls-20{clip-path:url(#clip-path-10);}.cls-21{stroke:#b3b3b3;stroke-width:0.53px;}.cls-22{stroke:#4d4d4d;stroke-miterlimit:10;stroke-width:0.75px;}</style><clipPath id="clip-path" transform="translate(-3.7 -4.8)"><rect class="cls-1" x="72.44" y="17.42" width="42.46" height="138.67"/></clipPath><clipPath id="clip-path-2" transform="translate(-3.7 -4.8)"><rect class="cls-1" x="119.88" y="17.42" width="42.46" height="138.67"/></clipPath><clipPath id="clip-path-3" transform="translate(-3.7 -4.8)"><rect class="cls-1" x="167.32" y="17.42" width="42.46" height="138.67"/></clipPath><clipPath id="clip-path-4" transform="translate(-3.7 -4.8)"><rect class="cls-1" x="214.76" y="17.42" width="42.46" height="138.67"/></clipPath><clipPath id="clip-path-5" transform="translate(-3.7 -4.8)"><rect class="cls-1" x="262.2" y="17.42" width="42.46" height="138.67"/></clipPath><clipPath id="clip-path-6" transform="translate(-3.7 -4.8)"><rect class="cls-1" x="309.64" y="17.42" width="42.46" height="138.67"/></clipPath><clipPath id="clip-path-7" transform="translate(-3.7 -4.8)"><rect class="cls-1" x="357.08" y="17.42" width="42.46" height="138.67"/></clipPath><clipPath id="clip-path-8" transform="translate(-3.7 -4.8)"><rect class="cls-1" x="404.51" y="17.42" width="42.46" height="138.67"/></clipPath><clipPath id="clip-path-9" transform="translate(-3.7 -4.8)"><rect class="cls-1" x="451.95" y="17.42" width="42.46" height="138.67"/></clipPath><clipPath id="clip-path-10" transform="translate(-3.7 -4.8)"><rect class="cls-1" x="499.39" y="17.42" width="42.46" height="138.67"/></clipPath></defs><text class="cls-2" transform="translate(80.05 7.47)">dot50</text><text class="cls-2" transform="translate(132.5 7.47)">cdf</text><text class="cls-2" transform="translate(174.43 7.47)">dot20</text><text class="cls-2" transform="translate(220.76 7.47)">text99</text><text class="cls-2" transform="translate(267.96 7.47)">text60</text><text class="cls-2" transform="translate(306.49 7.47)">pdfinterval</text><text class="cls-2" transform="translate(368.21 7.47)">pdf</text><text class="cls-2" transform="translate(407.13 7.47)">interval</text><text class="cls-2" transform="translate(455.48 7.47)">text85</text><text class="cls-2" transform="translate(506.04 7.47)">none</text><text class="cls-3" transform="translate(0 118.62)">Mean<tspan x="0" y="10.8">expected</tspan><tspan x="0" y="21.6">payoff /</tspan><tspan x="0" y="32.4">optimal</tspan></text><g class="cls-4"><rect class="cls-5" x="68.74" y="12.62" width="42.46" height="138.67"/><polygon class="cls-6" points="68.74 35.77 70.98 34.95 73.21 34.23 75.45 33.63 77.68 32.75 79.92 31.99 82.15 31.33 84.38 30.75 86.62 30.04 88.85 29.37 91.09 28.67 93.32 27.99 95.56 27.48 97.79 26.96 100.03 26.36 102.26 25.84 104.5 25.4 106.73 24.9 108.97 24.37 111.2 23.8 111.2 49.57 108.97 50.66 106.73 51.97 104.5 53.11 102.26 54.29 100.03 55.89 97.79 57.28 95.56 58.81 93.32 60.27 91.09 62.11 88.85 63.67 86.62 65.27 84.38 66.81 82.15 68.56 79.92 70.81 77.68 72.61 75.45 75.34 73.21 77.11 70.98 79.69 68.74 82.18 68.74 35.77"/><polyline class="cls-7" points="68.74 51.49 70.98 50.12 73.21 48.82 75.45 47.57 77.68 46.42 79.92 45.33 82.15 44.23 84.38 43.13 86.62 42.06 88.85 41.05 91.09 40.1 93.32 39.17 95.56 38.24 97.79 37.38 100.03 36.46 102.26 35.59 104.5 34.82 106.73 34.05 108.97 33.31 111.2 32.64"/><polygon class="cls-8" points="68.74 41.48 70.98 40.58 73.21 39.73 75.45 38.84 77.68 38.03 79.92 37.21 82.15 36.37 84.38 35.6 86.62 34.78 88.85 33.98 91.09 33.24 93.32 32.54 95.56 31.77 97.79 31.01 100.03 30.26 102.26 29.59 104.5 28.94 106.73 28.3 108.97 27.7 111.2 27.12 111.2 40.61 108.97 41.51 106.73 42.43 104.5 43.32 102.26 44.19 100.03 45.2 97.79 46.31 95.56 47.46 93.32 48.58 91.09 49.69 88.85 50.88 86.62 52.26 84.38 53.68 82.15 55.22 79.92 56.76 77.68 58.38 75.45 60.13 73.21 61.98 70.98 64.01 68.74 66.07 68.74 41.48"/><polyline class="cls-7" points="68.74 51.49 70.98 50.12 73.21 48.82 75.45 47.57 77.68 46.42 79.92 45.33 82.15 44.23 84.38 43.13 86.62 42.06 88.85 41.05 91.09 40.1 93.32 39.17 95.56 38.24 97.79 37.38 100.03 36.46 102.26 35.59 104.5 34.82 106.73 34.05 108.97 33.31 111.2 32.64"/><polygon class="cls-9" points="68.74 46.3 70.98 45.28 73.21 44.3 75.45 43.32 77.68 42.28 79.92 41.35 82.15 40.35 84.38 39.41 86.62 38.48 88.85 37.54 91.09 36.61 93.32 35.71 95.56 34.9 97.79 34.12 100.03 33.32 102.26 32.55 104.5 31.8 106.73 31.08 108.97 30.37 111.2 29.67 111.2 36.19 108.97 36.97 106.73 37.72 104.5 38.56 102.26 39.43 100.03 40.33 97.79 41.28 95.56 42.23 93.32 43.21 91.09 44.3 88.85 45.44 86.62 46.59 84.38 47.87 82.15 49.16 79.92 50.5 77.68 51.81 75.45 53.28 73.21 54.88 70.98 56.49 68.74 58.21 68.74 46.3"/><polyline class="cls-7" points="68.74 51.49 70.98 50.12 73.21 48.82 75.45 47.57 77.68 46.42 79.92 45.33 82.15 44.23 84.38 43.13 86.62 42.06 88.85 41.05 91.09 40.1 93.32 39.17 95.56 38.24 97.79 37.38 100.03 36.46 102.26 35.59 104.5 34.82 106.73 34.05 108.97 33.31 111.2 32.64"/><line class="cls-10" x1="68.74" y1="151.29" x2="111.2" y2="151.29"/><line class="cls-10" x1="68.74" y1="116.62" x2="111.2" y2="116.62"/><line class="cls-10" x1="68.74" y1="81.95" x2="111.2" y2="81.95"/><line class="cls-10" x1="68.74" y1="47.29" x2="111.2" y2="47.29"/><line class="cls-10" x1="68.74" y1="12.62" x2="111.2" y2="12.62"/><rect class="cls-11" x="68.74" y="12.62" width="42.46" height="138.67"/></g><g class="cls-12"><rect class="cls-5" x="116.18" y="12.62" width="42.46" height="138.67"/><polygon class="cls-6" points="116.18 42.49 118.42 41.75 120.65 41.03 122.89 40.2 125.12 39.48 127.35 38.58 129.59 37.7 131.82 36.89 134.06 36.24 136.29 35.7 138.53 34.89 140.76 34.08 143 33.3 145.23 32.53 147.47 31.83 149.7 31.14 151.93 30.48 154.17 29.88 156.4 29.27 158.64 28.68 158.64 64.13 156.4 65.48 154.17 66.84 151.93 68.16 149.7 69.65 147.47 71.49 145.23 73.23 143 75.16 140.76 77.01 138.53 78.75 136.29 80.42 134.06 82.56 131.82 84.24 129.59 86.22 127.35 88.35 125.12 90.45 122.89 92.67 120.65 95.18 118.42 97.93 116.18 100.91 116.18 42.49"/><polyline class="cls-7" points="116.18 64.46 118.42 62.92 120.65 61.5 122.89 60.08 125.12 58.7 127.35 57.31 129.59 56.05 131.82 54.77 134.06 53.5 136.29 52.32 138.53 51.14 140.76 50.01 143 48.88 145.23 47.78 147.47 46.72 149.7 45.66 151.93 44.66 154.17 43.69 156.4 42.73 158.64 41.78"/><polygon class="cls-8" points="116.18 51.58 118.42 50.52 120.65 49.49 122.89 48.47 125.12 47.42 127.35 46.48 129.59 45.53 131.82 44.5 134.06 43.58 136.29 42.61 138.53 41.63 140.76 40.68 143 39.8 145.23 38.93 147.47 38.09 149.7 37.2 151.93 36.44 154.17 35.63 156.4 34.81 158.64 33.99 158.64 52.42 156.4 53.49 154.17 54.57 151.93 55.84 149.7 57 147.47 58.11 145.23 59.29 143 60.61 140.76 62.01 138.53 63.6 136.29 65.11 134.06 66.7 131.82 68.48 129.59 70.07 127.35 71.85 125.12 73.86 122.89 75.95 120.65 77.94 118.42 80.07 116.18 82.24 116.18 51.58"/><polyline class="cls-7" points="116.18 64.46 118.42 62.92 120.65 61.5 122.89 60.08 125.12 58.7 127.35 57.31 129.59 56.05 131.82 54.77 134.06 53.5 136.29 52.32 138.53 51.14 140.76 50.01 143 48.88 145.23 47.78 147.47 46.72 149.7 45.66 151.93 44.66 154.17 43.69 156.4 42.73 158.64 41.78"/><polygon class="cls-9" points="116.18 57.85 118.42 56.62 120.65 55.32 122.89 54.11 125.12 53.05 127.35 51.93 129.59 50.83 131.82 49.72 134.06 48.61 136.29 47.51 138.53 46.39 140.76 45.37 143 44.37 145.23 43.39 147.47 42.47 149.7 41.51 151.93 40.61 154.17 39.7 156.4 38.83 158.64 37.92 158.64 46.78 156.4 47.72 154.17 48.7 151.93 49.76 149.7 50.79 147.47 51.79 145.23 52.88 143 54.01 140.76 55.28 138.53 56.53 136.29 57.85 134.06 59.26 131.82 60.69 129.59 62.14 127.35 63.6 125.12 65.22 122.89 66.97 120.65 68.65 118.42 70.47 116.18 72.29 116.18 57.85"/><polyline class="cls-7" points="116.18 64.46 118.42 62.92 120.65 61.5 122.89 60.08 125.12 58.7 127.35 57.31 129.59 56.05 131.82 54.77 134.06 53.5 136.29 52.32 138.53 51.14 140.76 50.01 143 48.88 145.23 47.78 147.47 46.72 149.7 45.66 151.93 44.66 154.17 43.69 156.4 42.73 158.64 41.78"/><line class="cls-10" x1="116.18" y1="151.29" x2="158.64" y2="151.29"/><line class="cls-10" x1="116.18" y1="116.62" x2="158.64" y2="116.62"/><line class="cls-10" x1="116.18" y1="81.95" x2="158.64" y2="81.95"/><line class="cls-10" x1="116.18" y1="47.29" x2="158.64" y2="47.29"/><line class="cls-10" x1="116.18" y1="12.62" x2="158.64" y2="12.62"/><rect class="cls-11" x="116.18" y="12.62" width="42.46" height="138.67"/></g><g class="cls-13"><rect class="cls-5" x="163.62" y="12.62" width="42.46" height="138.67"/><polygon class="cls-6" points="163.62 43.48 165.85 42.95 168.09 42.16 170.32 41.6 172.56 41.03 174.79 40.36 177.03 39.64 179.26 38.94 181.5 38.1 183.73 37.29 185.97 36.83 188.2 36.04 190.44 35.22 192.67 34.72 194.9 33.95 197.14 33.43 199.37 32.78 201.61 32.44 203.84 31.96 206.08 31.39 206.08 75 203.84 76.19 201.61 77.84 199.37 79.21 197.14 81 194.9 82.72 192.67 83.72 190.44 84.94 188.2 86.55 185.97 88.34 183.73 89.56 181.5 91.44 179.26 92.95 177.03 94.69 174.79 96.75 172.56 98.8 170.32 100.39 168.09 103.07 165.85 105.44 163.62 107 163.62 43.48"/><polyline class="cls-7" points="163.62 67.28 165.85 65.91 168.09 64.73 170.32 63.53 172.56 62.26 174.79 61.04 177.03 59.89 179.26 58.66 181.5 57.56 183.73 56.44 185.97 55.39 188.2 54.4 190.44 53.34 192.67 52.37 194.9 51.39 197.14 50.39 199.37 49.48 201.61 48.51 203.84 47.64 206.08 46.74"/><polygon class="cls-8" points="163.62 53.41 165.85 52.62 168.09 51.79 170.32 50.86 172.56 50.11 174.79 49.23 177.03 48.37 179.26 47.55 181.5 46.67 183.73 45.76 185.97 44.93 188.2 44.09 190.44 43.28 192.67 42.58 194.9 41.67 197.14 40.8 199.37 40.02 201.61 39.26 203.84 38.43 206.08 37.6 206.08 58.98 203.84 59.83 201.61 60.79 199.37 61.69 197.14 62.71 194.9 63.74 192.67 64.84 190.44 65.92 188.2 67.02 185.97 68.38 183.73 69.85 181.5 71.31 179.26 72.69 177.03 74.29 174.79 76.01 172.56 77.74 170.32 79.5 168.09 81.23 165.85 83.08 163.62 85.34 163.62 53.41"/><polyline class="cls-7" points="163.62 67.28 165.85 65.91 168.09 64.73 170.32 63.53 172.56 62.26 174.79 61.04 177.03 59.89 179.26 58.66 181.5 57.56 183.73 56.44 185.97 55.39 188.2 54.4 190.44 53.34 192.67 52.37 194.9 51.39 197.14 50.39 199.37 49.48 201.61 48.51 203.84 47.64 206.08 46.74"/><polygon class="cls-9" points="163.62 60.12 165.85 59.16 168.09 58.11 170.32 57.08 172.56 56.04 174.79 54.99 177.03 54.02 179.26 53.04 181.5 52.07 183.73 51.09 185.97 50.09 188.2 49.09 190.44 48.2 192.67 47.26 194.9 46.39 197.14 45.44 199.37 44.58 201.61 43.71 203.84 42.91 206.08 42.03 206.08 52.37 203.84 53.17 201.61 54.08 199.37 54.99 197.14 55.9 194.9 56.87 192.67 57.82 190.44 58.89 188.2 59.97 185.97 61.07 183.73 62.33 181.5 63.65 179.26 64.83 177.03 66.23 174.79 67.6 172.56 69.05 170.32 70.54 168.09 72 165.85 73.65 163.62 75.38 163.62 60.12"/><polyline class="cls-7" points="163.62 67.28 165.85 65.91 168.09 64.73 170.32 63.53 172.56 62.26 174.79 61.04 177.03 59.89 179.26 58.66 181.5 57.56 183.73 56.44 185.97 55.39 188.2 54.4 190.44 53.34 192.67 52.37 194.9 51.39 197.14 50.39 199.37 49.48 201.61 48.51 203.84 47.64 206.08 46.74"/><line class="cls-10" x1="163.62" y1="151.29" x2="206.08" y2="151.29"/><line class="cls-10" x1="163.62" y1="116.62" x2="206.08" y2="116.62"/><line class="cls-10" x1="163.62" y1="81.95" x2="206.08" y2="81.95"/><line class="cls-10" x1="163.62" y1="47.29" x2="206.08" y2="47.29"/><line class="cls-10" x1="163.62" y1="12.62" x2="206.08" y2="12.62"/><rect class="cls-11" x="163.62" y="12.62" width="42.46" height="138.67"/></g><g class="cls-14"><rect class="cls-5" x="211.06" y="12.62" width="42.46" height="138.67"/><polygon class="cls-6" points="211.06 50.87 213.29 49.67 215.53 48.45 217.76 47.2 220 46.12 222.23 45.22 224.47 44.13 226.7 42.77 228.94 41.79 231.17 40.78 233.4 39.73 235.64 38.86 237.87 37.95 240.11 37.09 242.34 36.3 244.58 35.47 246.81 34.68 249.05 33.94 251.28 33.17 253.52 32.42 253.52 74.29 251.28 76.37 249.05 78.21 246.81 80.17 244.58 82.39 242.34 84.34 240.11 86.13 237.87 88.17 235.64 90.02 233.4 92.27 231.17 94.26 228.94 96.27 226.7 98.62 224.47 101.68 222.23 104.5 220 107.59 217.76 110.62 215.53 113.67 213.29 116.91 211.06 120.18 211.06 50.87"/><polyline class="cls-7" points="211.06 76.49 213.29 74.54 215.53 72.61 217.76 70.78 220 69.04 222.23 67.27 224.47 65.54 226.7 63.93 228.94 62.36 231.17 60.83 233.4 59.3 235.64 57.8 237.87 56.39 240.11 55.03 242.34 53.69 244.58 52.4 246.81 51.15 249.05 49.92 251.28 48.69 253.52 47.56"/><polygon class="cls-8" points="211.06 61.21 213.29 59.84 215.53 58.48 217.76 57.14 220 55.84 222.23 54.45 224.47 53.11 226.7 51.8 228.94 50.57 231.17 49.45 233.4 48.29 235.64 47.1 237.87 45.93 240.11 44.78 242.34 43.64 244.58 42.56 246.81 41.5 249.05 40.46 251.28 39.43 253.52 38.41 253.52 59.17 251.28 60.54 249.05 61.98 246.81 63.29 244.58 64.74 242.34 66.35 240.11 67.87 237.87 69.57 235.64 71.21 233.4 73.01 231.17 74.82 228.94 76.94 226.7 78.83 224.47 80.71 222.23 83.09 220 85.57 217.76 88.04 215.53 90.49 213.29 93.07 211.06 95.95 211.06 61.21"/><polyline class="cls-7" points="211.06 76.49 213.29 74.54 215.53 72.61 217.76 70.78 220 69.04 222.23 67.27 224.47 65.54 226.7 63.93 228.94 62.36 231.17 60.83 233.4 59.3 235.64 57.8 237.87 56.39 240.11 55.03 242.34 53.69 244.58 52.4 246.81 51.15 249.05 49.92 251.28 48.69 253.52 47.56"/><polygon class="cls-9" points="211.06 68.52 213.29 66.92 215.53 65.26 217.76 63.75 220 62.27 222.23 60.77 224.47 59.28 226.7 57.85 228.94 56.42 231.17 55.04 233.4 53.67 235.64 52.38 237.87 51.1 240.11 49.78 242.34 48.55 244.58 47.37 246.81 46.13 249.05 44.95 251.28 43.79 253.52 42.69 253.52 52.84 251.28 54.1 249.05 55.34 246.81 56.62 244.58 57.97 242.34 59.39 240.11 60.81 237.87 62.3 235.64 63.88 233.4 65.54 231.17 67.23 228.94 69 226.7 70.8 224.47 72.68 222.23 74.57 220 76.6 217.76 78.67 215.53 80.76 213.29 83.11 211.06 85.49 211.06 68.52"/><polyline class="cls-7" points="211.06 76.49 213.29 74.54 215.53 72.61 217.76 70.78 220 69.04 222.23 67.27 224.47 65.54 226.7 63.93 228.94 62.36 231.17 60.83 233.4 59.3 235.64 57.8 237.87 56.39 240.11 55.03 242.34 53.69 244.58 52.4 246.81 51.15 249.05 49.92 251.28 48.69 253.52 47.56"/><line class="cls-10" x1="211.06" y1="151.29" x2="253.52" y2="151.29"/><line class="cls-10" x1="211.06" y1="116.62" x2="253.52" y2="116.62"/><line class="cls-10" x1="211.06" y1="81.95" x2="253.52" y2="81.95"/><line class="cls-10" x1="211.06" y1="47.29" x2="253.52" y2="47.29"/><line class="cls-10" x1="211.06" y1="12.62" x2="253.52" y2="12.62"/><rect class="cls-11" x="211.06" y="12.62" width="42.46" height="138.67"/></g><g class="cls-15"><rect class="cls-5" x="258.5" y="12.62" width="42.46" height="138.67"/><polygon class="cls-6" points="258.5 43.29 260.73 42.83 262.97 42.2 265.2 41.82 267.44 41.33 269.67 40.74 271.91 40.17 274.14 39.61 276.37 39.23 278.61 38.65 280.84 38.41 283.08 37.86 285.31 37.41 287.55 36.85 289.78 36.41 292.02 35.89 294.25 35.52 296.49 34.95 298.72 34.32 300.96 33.68 300.96 79.09 298.72 80.18 296.49 81.34 294.25 82.18 292.02 82.96 289.78 83.91 287.55 84.62 285.31 85.34 283.08 86.69 280.84 88.6 278.61 89.65 276.37 91.05 274.14 92.14 271.91 93.24 269.67 94.36 267.44 96 265.2 97.8 262.97 99.61 260.73 100.81 258.5 102.29 258.5 43.29"/><polyline class="cls-7" points="258.5 65.94 260.73 64.91 262.97 63.97 265.2 62.98 267.44 62.08 269.67 61.12 271.91 60.26 274.14 59.4 276.37 58.62 278.61 57.77 280.84 56.88 283.08 56.06 285.31 55.2 287.55 54.4 289.78 53.62 292.02 52.8 294.25 52.06 296.49 51.36 298.72 50.64 300.96 49.87"/><polygon class="cls-8" points="258.5 52.18 260.73 51.55 262.97 51.06 265.2 50.28 267.44 49.49 269.67 48.98 271.91 48.48 274.14 47.91 276.37 47.3 278.61 46.6 280.84 46 283.08 45.32 285.31 44.6 287.55 43.97 289.78 43.3 292.02 42.61 294.25 41.94 296.49 41.27 298.72 40.62 300.96 40.02 300.96 63.52 298.72 64.06 296.49 64.57 294.25 65.4 292.02 66.32 289.78 67.09 287.55 67.96 285.31 68.84 283.08 69.66 280.84 70.66 278.61 71.66 276.37 72.63 274.14 73.66 271.91 74.89 269.67 76.16 267.44 77.52 265.2 78.7 262.97 80.01 260.73 81.49 258.5 83 258.5 52.18"/><polyline class="cls-7" points="258.5 65.94 260.73 64.91 262.97 63.97 265.2 62.98 267.44 62.08 269.67 61.12 271.91 60.26 274.14 59.4 276.37 58.62 278.61 57.77 280.84 56.88 283.08 56.06 285.31 55.2 287.55 54.4 289.78 53.62 292.02 52.8 294.25 52.06 296.49 51.36 298.72 50.64 300.96 49.87"/><polygon class="cls-9" points="258.5 58.79 260.73 58.05 262.97 57.35 265.2 56.64 267.44 55.84 269.67 55.09 271.91 54.34 274.14 53.53 276.37 52.78 278.61 52.02 280.84 51.33 283.08 50.54 285.31 49.77 287.55 49.06 289.78 48.34 292.02 47.55 294.25 46.83 296.49 46.14 298.72 45.4 300.96 44.76 300.96 56.01 298.72 56.64 296.49 57.34 294.25 58.09 292.02 58.91 289.78 59.7 287.55 60.47 285.31 61.3 283.08 62.12 280.84 63.08 278.61 63.97 276.37 64.8 274.14 65.81 271.91 66.87 269.67 67.88 267.44 68.87 265.2 70.01 262.97 71.24 260.73 72.43 258.5 73.69 258.5 58.79"/><polyline class="cls-7" points="258.5 65.94 260.73 64.91 262.97 63.97 265.2 62.98 267.44 62.08 269.67 61.12 271.91 60.26 274.14 59.4 276.37 58.62 278.61 57.77 280.84 56.88 283.08 56.06 285.31 55.2 287.55 54.4 289.78 53.62 292.02 52.8 294.25 52.06 296.49 51.36 298.72 50.64 300.96 49.87"/><line class="cls-10" x1="258.5" y1="151.29" x2="300.96" y2="151.29"/><line class="cls-10" x1="258.5" y1="116.62" x2="300.96" y2="116.62"/><line class="cls-10" x1="258.5" y1="81.95" x2="300.96" y2="81.95"/><line class="cls-10" x1="258.5" y1="47.29" x2="300.96" y2="47.29"/><line class="cls-10" x1="258.5" y1="12.62" x2="300.96" y2="12.62"/><rect class="cls-11" x="258.5" y="12.62" width="42.46" height="138.67"/></g><g class="cls-16"><rect class="cls-5" x="305.94" y="12.62" width="42.46" height="138.67"/><polygon class="cls-6" points="305.94 53.58 308.17 52.33 310.41 51.39 312.64 50.25 314.87 49.06 317.11 47.94 319.34 46.83 321.58 45.65 323.81 44.68 326.05 43.57 328.28 42.49 330.52 41.5 332.75 40.61 334.99 39.74 337.22 38.75 339.46 38 341.69 37.14 343.92 36.21 346.16 35.36 348.39 34.63 348.39 80.08 346.16 82.39 343.92 85.11 341.69 87.06 339.46 89.32 337.22 91.38 334.99 93.29 332.75 95.6 330.52 98.63 328.28 101.16 326.05 103.7 323.81 106.35 321.58 109.33 319.34 111.74 317.11 114.98 314.87 118.31 312.64 121.3 310.41 124.67 308.17 128.13 305.94 131.61 305.94 53.58"/><polyline class="cls-7" points="305.94 83.38 308.17 81.18 310.41 79.09 312.64 77.13 314.87 75.08 317.11 73.04 319.34 71.11 321.58 69.34 323.81 67.55 326.05 65.86 328.28 64.25 330.52 62.65 332.75 60.96 334.99 59.47 337.22 58.05 339.46 56.63 341.69 55.19 343.92 53.88 346.16 52.59 348.39 51.32"/><polygon class="cls-8" points="305.94 65.18 308.17 63.74 310.41 62.54 312.64 61.06 314.87 59.65 317.11 58.19 319.34 56.63 321.58 55.51 323.81 54.16 326.05 52.78 328.28 51.47 330.52 50.2 332.75 48.92 334.99 47.68 337.22 46.45 339.46 45.17 341.69 43.96 343.92 42.83 346.16 41.69 348.39 40.6 348.39 65.72 346.16 67.03 343.92 68.42 341.69 69.94 339.46 71.56 337.22 73.23 334.99 75.09 332.75 77.01 330.52 78.93 328.28 80.9 326.05 82.83 323.81 84.94 321.58 87.28 319.34 89.71 317.11 92.11 314.87 94.83 312.64 97.48 310.41 100.4 308.17 103.45 305.94 106.58 305.94 65.18"/><polyline class="cls-7" points="305.94 83.38 308.17 81.18 310.41 79.09 312.64 77.13 314.87 75.08 317.11 73.04 319.34 71.11 321.58 69.34 323.81 67.55 326.05 65.86 328.28 64.25 330.52 62.65 332.75 60.96 334.99 59.47 337.22 58.05 339.46 56.63 341.69 55.19 343.92 53.88 346.16 52.59 348.39 51.32"/><polygon class="cls-9" points="305.94 74.09 308.17 72.4 310.41 70.69 312.64 69.04 314.87 67.42 317.11 65.81 319.34 64.2 321.58 62.61 323.81 60.99 326.05 59.47 328.28 57.94 330.52 56.48 332.75 55.05 334.99 53.64 337.22 52.24 339.46 50.85 341.69 49.54 343.92 48.15 346.16 46.88 348.39 45.73 348.39 57.76 346.16 59.07 343.92 60.49 341.69 61.87 339.46 63.35 337.22 64.91 334.99 66.47 332.75 68.11 330.52 69.9 328.28 71.65 326.05 73.5 323.81 75.5 321.58 77.51 319.34 79.59 317.11 81.83 314.87 84.11 312.64 86.44 310.41 88.8 308.17 91.57 305.94 94.22 305.94 74.09"/><polyline class="cls-7" points="305.94 83.38 308.17 81.18 310.41 79.09 312.64 77.13 314.87 75.08 317.11 73.04 319.34 71.11 321.58 69.34 323.81 67.55 326.05 65.86 328.28 64.25 330.52 62.65 332.75 60.96 334.99 59.47 337.22 58.05 339.46 56.63 341.69 55.19 343.92 53.88 346.16 52.59 348.39 51.32"/><line class="cls-10" x1="305.94" y1="151.29" x2="348.39" y2="151.29"/><line class="cls-10" x1="305.94" y1="116.62" x2="348.39" y2="116.62"/><line class="cls-10" x1="305.94" y1="81.95" x2="348.39" y2="81.95"/><line class="cls-10" x1="305.94" y1="47.29" x2="348.39" y2="47.29"/><line class="cls-10" x1="305.94" y1="12.62" x2="348.39" y2="12.62"/><rect class="cls-11" x="305.94" y="12.62" width="42.46" height="138.67"/></g><g class="cls-17"><rect class="cls-5" x="353.38" y="12.62" width="42.46" height="138.67"/><polygon class="cls-6" points="353.38 44.73 355.61 44.4 357.84 43.93 360.08 43.67 362.31 43.2 364.55 42.79 366.78 42.62 369.02 42.28 371.25 41.82 373.49 41.47 375.72 41.27 377.96 40.93 380.19 40.62 382.43 40.35 384.66 40.19 386.89 39.82 389.13 39.61 391.36 39.14 393.6 38.68 395.83 38.24 395.83 86.2 393.6 86.74 391.36 87.35 389.13 87.97 386.89 88.59 384.66 89.22 382.43 90.18 380.19 91.11 377.96 92.06 375.72 92.95 373.49 93.88 371.25 94.53 369.02 95.24 366.78 96.76 364.55 98.54 362.31 99.94 360.08 100.15 357.84 101.05 355.61 102.35 353.38 103.35 353.38 44.73"/><polyline class="cls-7" points="353.38 66.61 355.61 65.91 357.84 65.29 360.08 64.63 362.31 64.09 364.55 63.46 366.78 62.86 369.02 62.22 371.25 61.6 373.49 61.01 375.72 60.44 377.96 59.86 380.19 59.27 382.43 58.73 384.66 58.16 386.89 57.6 389.13 57.03 391.36 56.47 393.6 55.89 395.83 55.38"/><polygon class="cls-8" points="353.38 54.16 355.61 53.79 357.84 53.39 360.08 52.93 362.31 52.55 364.55 52.13 366.78 51.7 369.02 51.26 371.25 50.85 373.49 50.51 375.72 50.03 377.96 49.53 380.19 49 382.43 48.49 384.66 48.03 386.89 47.56 389.13 47.02 391.36 46.46 393.6 45.88 395.83 45.33 395.83 69.11 393.6 69.8 391.36 70.21 389.13 70.86 386.89 71.4 384.66 71.94 382.43 72.44 380.19 73 377.96 73.71 375.72 74.42 373.49 75.15 371.25 75.94 369.02 76.8 366.78 77.59 364.55 78.36 362.31 79.18 360.08 80.07 357.84 81.14 355.61 82.18 353.38 83.29 353.38 54.16"/><polyline class="cls-7" points="353.38 66.61 355.61 65.91 357.84 65.29 360.08 64.63 362.31 64.09 364.55 63.46 366.78 62.86 369.02 62.22 371.25 61.6 373.49 61.01 375.72 60.44 377.96 59.86 380.19 59.27 382.43 58.73 384.66 58.16 386.89 57.6 389.13 57.03 391.36 56.47 393.6 55.89 395.83 55.38"/><polygon class="cls-9" points="353.38 60.64 355.61 60.14 357.84 59.63 360.08 59.14 362.31 58.59 364.55 58.14 366.78 57.58 369.02 57.04 371.25 56.55 373.49 56.03 375.72 55.42 377.96 54.87 380.19 54.31 382.43 53.74 384.66 53.18 386.89 52.58 389.13 52.01 391.36 51.45 393.6 50.87 395.83 50.32 395.83 61.05 393.6 61.54 391.36 62.07 389.13 62.61 386.89 63.19 384.66 63.8 382.43 64.35 380.19 64.9 377.96 65.51 375.72 66.07 373.49 66.79 371.25 67.5 369.02 68.2 366.78 68.87 364.55 69.57 362.31 70.35 360.08 71.18 357.84 72.04 355.61 72.77 353.38 73.65 353.38 60.64"/><polyline class="cls-7" points="353.38 66.61 355.61 65.91 357.84 65.29 360.08 64.63 362.31 64.09 364.55 63.46 366.78 62.86 369.02 62.22 371.25 61.6 373.49 61.01 375.72 60.44 377.96 59.86 380.19 59.27 382.43 58.73 384.66 58.16 386.89 57.6 389.13 57.03 391.36 56.47 393.6 55.89 395.83 55.38"/><line class="cls-10" x1="353.38" y1="151.29" x2="395.83" y2="151.29"/><line class="cls-10" x1="353.38" y1="116.62" x2="395.83" y2="116.62"/><line class="cls-10" x1="353.38" y1="81.95" x2="395.83" y2="81.95"/><line class="cls-10" x1="353.38" y1="47.29" x2="395.83" y2="47.29"/><line class="cls-10" x1="353.38" y1="12.62" x2="395.83" y2="12.62"/><rect class="cls-11" x="353.38" y="12.62" width="42.46" height="138.67"/></g><g class="cls-18"><rect class="cls-5" x="400.81" y="12.62" width="42.46" height="138.67"/><polygon class="cls-6" points="400.81 58.66 403.05 57.63 405.28 56.61 407.52 56.05 409.75 55.27 411.99 54.27 414.22 53.18 416.46 52.25 418.69 51.56 420.93 50.47 423.16 49.68 425.39 48.45 427.63 47.56 429.86 46.65 432.1 45.76 434.33 44.82 436.57 43.84 438.8 42.65 441.04 41.73 443.27 40.47 443.27 102.45 441.04 104.22 438.8 105.24 436.57 107 434.33 108.67 432.1 110.62 429.86 112.2 427.63 114.52 425.39 116.77 423.16 118.43 420.93 121.21 418.69 123 416.46 125.6 414.22 128.34 411.99 131.29 409.75 133.96 407.52 137.36 405.28 140.85 403.05 144.72 400.81 148.99 400.81 58.66"/><polyline class="cls-7" points="400.81 91.33 403.05 89.5 405.28 87.55 407.52 85.88 409.75 84.21 411.99 82.48 414.22 80.82 416.46 79.3 418.69 77.58 420.93 76.07 423.16 74.58 425.39 73.15 427.63 71.83 429.86 70.41 432.1 69.1 434.33 67.69 436.57 66.38 438.8 65.03 441.04 63.88 443.27 62.7"/><polygon class="cls-8" points="400.81 69.66 403.05 68.69 405.28 67.76 407.52 66.79 409.75 65.75 411.99 64.69 414.22 63.65 416.46 62.47 418.69 61.37 420.93 60.21 423.16 58.97 425.39 57.88 427.63 56.78 429.86 55.56 432.1 54.28 434.33 53.12 436.57 51.93 438.8 50.78 441.04 49.64 443.27 48.5 443.27 82.61 441.04 83.8 438.8 84.82 436.57 86.23 434.33 87.62 432.1 89.23 429.86 90.82 427.63 92.56 425.39 94.21 423.16 96.16 420.93 98.06 418.69 100.09 416.46 102.46 414.22 104.6 411.99 106.81 409.75 109.14 407.52 111.43 405.28 113.94 403.05 116.65 400.81 119.54 400.81 69.66"/><polyline class="cls-7" points="400.81 91.33 403.05 89.5 405.28 87.55 407.52 85.88 409.75 84.21 411.99 82.48 414.22 80.82 416.46 79.3 418.69 77.58 420.93 76.07 423.16 74.58 425.39 73.15 427.63 71.83 429.86 70.41 432.1 69.1 434.33 67.69 436.57 66.38 438.8 65.03 441.04 63.88 443.27 62.7"/><polygon class="cls-9" points="400.81 79.67 403.05 78.29 405.28 77.09 407.52 75.72 409.75 74.48 411.99 73.34 414.22 72.07 416.46 70.63 418.69 69.26 420.93 68.02 423.16 66.6 425.39 65.22 427.63 63.86 429.86 62.54 432.1 61.24 434.33 60.04 436.57 58.66 438.8 57.47 441.04 56.11 443.27 54.83 443.27 72.02 441.04 73.12 438.8 74.11 436.57 75.33 434.33 76.67 432.1 78 429.86 79.48 427.63 80.88 425.39 82.15 423.16 83.7 420.93 85.38 418.69 87.08 416.46 88.99 414.22 90.89 411.99 92.67 409.75 94.74 407.52 96.73 405.28 98.96 403.05 101.26 400.81 103.46 400.81 79.67"/><polyline class="cls-7" points="400.81 91.33 403.05 89.5 405.28 87.55 407.52 85.88 409.75 84.21 411.99 82.48 414.22 80.82 416.46 79.3 418.69 77.58 420.93 76.07 423.16 74.58 425.39 73.15 427.63 71.83 429.86 70.41 432.1 69.1 434.33 67.69 436.57 66.38 438.8 65.03 441.04 63.88 443.27 62.7"/><line class="cls-10" x1="400.81" y1="151.29" x2="443.27" y2="151.29"/><line class="cls-10" x1="400.81" y1="116.62" x2="443.27" y2="116.62"/><line class="cls-10" x1="400.81" y1="81.95" x2="443.27" y2="81.95"/><line class="cls-10" x1="400.81" y1="47.29" x2="443.27" y2="47.29"/><line class="cls-10" x1="400.81" y1="12.62" x2="443.27" y2="12.62"/><rect class="cls-11" x="400.81" y="12.62" width="42.46" height="138.67"/></g><g class="cls-19"><rect class="cls-5" x="448.25" y="12.62" width="42.46" height="138.67"/><polygon class="cls-6" points="448.25 44.57 450.49 44.96 452.72 45.21 454.96 45.52 457.19 45.74 459.43 46 461.66 46.27 463.9 46.31 466.13 46.4 468.36 46.51 470.6 46.68 472.83 46.4 475.07 46.27 477.3 46.09 479.54 46.13 481.77 46.23 484.01 46.39 486.24 46.01 488.48 45.69 490.71 45.46 490.71 117.47 488.48 116.45 486.24 115.49 484.01 115.05 481.77 114.61 479.54 113.68 477.3 112.97 475.07 112.52 472.83 112.17 470.6 111.78 468.36 111.39 466.13 111.33 463.9 110.65 461.66 110.25 459.43 109.94 457.19 109.9 454.96 109.34 452.72 109.18 450.49 109.69 448.25 108.76 448.25 44.57"/><polyline class="cls-7" points="448.25 68.78 450.49 68.95 452.72 69.11 454.96 69.23 457.19 69.37 459.43 69.52 461.66 69.65 463.9 69.66 466.13 69.77 468.36 69.83 470.6 69.87 472.83 70 475.07 70.15 477.3 70.24 479.54 70.35 481.77 70.42 484.01 70.47 486.24 70.63 488.48 70.7 490.71 70.84"/><polygon class="cls-8" points="448.25 53.93 450.49 54.12 452.72 54.3 454.96 54.54 457.19 54.79 459.43 54.98 461.66 55.06 463.9 55.27 466.13 55.28 468.36 55.36 470.6 55.4 472.83 55.48 475.07 55.51 477.3 55.6 479.54 55.45 481.77 55.33 484.01 55.25 486.24 55.05 488.48 54.9 490.71 54.74 490.71 93.35 488.48 92.42 486.24 91.89 484.01 91.25 481.77 90.62 479.54 90.13 477.3 89.91 475.07 89.39 472.83 89.22 470.6 89.08 468.36 88.67 466.13 88.39 463.9 88.07 461.66 87.86 459.43 87.93 457.19 87.79 454.96 87.71 452.72 87.84 450.49 88.06 448.25 88.16 448.25 53.93"/><polyline class="cls-7" points="448.25 68.78 450.49 68.95 452.72 69.11 454.96 69.23 457.19 69.37 459.43 69.52 461.66 69.65 463.9 69.66 466.13 69.77 468.36 69.83 470.6 69.87 472.83 70 475.07 70.15 477.3 70.24 479.54 70.35 481.77 70.42 484.01 70.47 486.24 70.63 488.48 70.7 490.71 70.84"/><polygon class="cls-9" points="448.25 60.66 450.49 60.9 452.72 61.1 454.96 61.26 457.19 61.5 459.43 61.58 461.66 61.81 463.9 61.97 466.13 62.11 468.36 62.2 470.6 62.39 472.83 62.54 475.07 62.62 477.3 62.65 479.54 62.6 481.77 62.56 484.01 62.5 486.24 62.54 488.48 62.43 490.71 62.4 490.71 81.19 488.48 80.8 486.24 80.51 484.01 80.12 481.77 79.69 479.54 79.42 477.3 79.17 475.07 78.98 472.83 78.82 470.6 78.62 468.36 78.27 466.13 78.11 463.9 78.05 461.66 78.03 459.43 77.89 457.19 77.88 454.96 77.85 452.72 77.85 450.49 77.88 448.25 77.98 448.25 60.66"/><polyline class="cls-7" points="448.25 68.78 450.49 68.95 452.72 69.11 454.96 69.23 457.19 69.37 459.43 69.52 461.66 69.65 463.9 69.66 466.13 69.77 468.36 69.83 470.6 69.87 472.83 70 475.07 70.15 477.3 70.24 479.54 70.35 481.77 70.42 484.01 70.47 486.24 70.63 488.48 70.7 490.71 70.84"/><line class="cls-10" x1="448.25" y1="151.29" x2="490.71" y2="151.29"/><line class="cls-10" x1="448.25" y1="116.62" x2="490.71" y2="116.62"/><line class="cls-10" x1="448.25" y1="81.95" x2="490.71" y2="81.95"/><line class="cls-10" x1="448.25" y1="47.29" x2="490.71" y2="47.29"/><line class="cls-10" x1="448.25" y1="12.62" x2="490.71" y2="12.62"/><rect class="cls-11" x="448.25" y="12.62" width="42.46" height="138.67"/></g><g class="cls-20"><rect class="cls-5" x="495.69" y="12.62" width="42.46" height="138.67"/><polygon class="cls-6" points="495.69 50.13 497.93 49.94 500.16 49.68 502.4 49.35 504.63 48.93 506.86 48.48 509.1 47.93 511.33 47.6 513.57 47.16 515.8 46.72 518.04 46.34 520.27 45.87 522.51 45.44 524.74 45.03 526.98 44.62 529.21 44.11 531.45 43.63 533.68 43.19 535.91 42.84 538.15 42.24 538.15 100.86 535.91 101.24 533.68 101.81 531.45 102.45 529.21 103.02 526.98 103.99 524.74 104.41 522.51 105.63 520.27 106.43 518.04 107.44 515.8 108.95 513.57 110.05 511.33 111.01 509.1 112.14 506.86 113.43 504.63 114.69 502.4 115.89 500.16 117.68 497.93 119.41 495.69 120.77 495.69 50.13"/><polyline class="cls-7" points="495.69 76.13 497.93 75.37 500.16 74.75 502.4 74.05 504.63 73.4 506.86 72.73 509.1 72.02 511.33 71.4 513.57 70.71 515.8 70.13 518.04 69.54 520.27 69.01 522.51 68.49 524.74 67.85 526.98 67.23 529.21 66.52 531.45 65.86 533.68 65.27 535.91 64.63 538.15 63.97"/><polygon class="cls-8" points="495.69 60.12 497.93 59.87 500.16 59.58 502.4 59.3 504.63 58.91 506.86 58.46 509.1 57.96 511.33 57.46 513.57 57.02 515.8 56.57 518.04 56.09 520.27 55.45 522.51 54.9 524.74 54.22 526.98 53.6 529.21 52.87 531.45 52.18 533.68 51.5 535.91 50.78 538.15 50.08 538.15 83 535.91 83.44 533.68 83.89 531.45 84.31 529.21 84.85 526.98 85.12 524.74 85.89 522.51 86.41 520.27 86.92 518.04 87.69 515.8 88.13 513.57 88.97 511.33 89.68 509.1 90.58 506.86 91.53 504.63 92.47 502.4 93.62 500.16 94.72 497.93 96.02 495.69 97.56 495.69 60.12"/><polyline class="cls-7" points="495.69 76.13 497.93 75.37 500.16 74.75 502.4 74.05 504.63 73.4 506.86 72.73 509.1 72.02 511.33 71.4 513.57 70.71 515.8 70.13 518.04 69.54 520.27 69.01 522.51 68.49 524.74 67.85 526.98 67.23 529.21 66.52 531.45 65.86 533.68 65.27 535.91 64.63 538.15 63.97"/><polygon class="cls-9" points="495.69 67.96 497.93 67.44 500.16 66.98 502.4 66.48 504.63 65.92 506.86 65.43 509.1 64.85 511.33 64.25 513.57 63.69 515.8 62.99 518.04 62.35 520.27 61.56 522.51 60.92 524.74 60.32 526.98 59.7 529.21 58.99 531.45 58.28 533.68 57.6 535.91 56.88 538.15 56.23 538.15 72.67 535.91 73.09 533.68 73.58 531.45 73.94 529.21 74.46 526.98 74.86 524.74 75.35 522.51 76 520.27 76.77 518.04 77.43 515.8 78.19 513.57 79 511.33 79.84 509.1 80.67 506.86 81.54 504.63 82.39 502.4 83.33 500.16 84.24 497.93 85.15 495.69 86.12 495.69 67.96"/><polyline class="cls-7" points="495.69 76.13 497.93 75.37 500.16 74.75 502.4 74.05 504.63 73.4 506.86 72.73 509.1 72.02 511.33 71.4 513.57 70.71 515.8 70.13 518.04 69.54 520.27 69.01 522.51 68.49 524.74 67.85 526.98 67.23 529.21 66.52 531.45 65.86 533.68 65.27 535.91 64.63 538.15 63.97"/><line class="cls-10" x1="495.69" y1="151.29" x2="538.15" y2="151.29"/><line class="cls-10" x1="495.69" y1="116.62" x2="538.15" y2="116.62"/><line class="cls-10" x1="495.69" y1="81.95" x2="538.15" y2="81.95"/><line class="cls-10" x1="495.69" y1="47.29" x2="538.15" y2="47.29"/><line class="cls-10" x1="495.69" y1="12.62" x2="538.15" y2="12.62"/><rect class="cls-11" x="495.69" y="12.62" width="42.46" height="138.67"/></g><text class="cls-2" transform="translate(46.3 154.52)">0.80</text><text class="cls-2" transform="translate(46.3 119.85)">0.85</text><text class="cls-2" transform="translate(46.3 85.19)">0.90</text><text class="cls-2" transform="translate(46.3 50.52)">0.95</text><text class="cls-2" transform="translate(46.3 15.85)">1.00</text><line class="cls-21" x1="66" y1="151.29" x2="68.74" y2="151.29"/><line class="cls-21" x1="66" y1="116.62" x2="68.74" y2="116.62"/><line class="cls-21" x1="66" y1="81.95" x2="68.74" y2="81.95"/><line class="cls-21" x1="66" y1="47.29" x2="68.74" y2="47.29"/><line class="cls-21" x1="66" y1="12.62" x2="68.74" y2="12.62"/><text class="cls-2" transform="translate(540.15 72.69)">50% CI</text><text class="cls-2" transform="translate(540.15 84.66)">80% CI</text><text class="cls-2" transform="translate(540.15 96.63)">95% CI</text><text class="cls-2" transform="translate(0 15.85)">optimal</text><line class="cls-22" x1="32.59" y1="13.29" x2="42.34" y2="13.29"/><polygon class="cls-23" points="41.74 15.35 45.3 13.29 41.74 11.23 41.74 15.35"/></svg>