<?xml version="1.0" encoding="utf-8"?>
<!-- Generator: Adobe Illustrator 25.3.1, SVG Export Plug-In . SVG Version: 6.00 Build 0)  -->
<svg version="1.1" id="Layer_1" xmlns="http://www.w3.org/2000/svg" xmlns:xlink="http://www.w3.org/1999/xlink" x="0px" y="0px"
	 width="594px" height="585px" viewBox="0 0 594 585" style="enable-background:new 0 0 594 585;" xml:space="preserve">
<style type="text/css">
	.st0{fill:#FFFFFF;}
	.st1{fill:#9E005D;}
</style>
<g>
	<path class="st0" d="M503.23,584H90.77C40.64,584,0,543.36,0,493.23V91.77C0,41.64,40.64,1,90.77,1h412.45
		C553.36,1,594,41.64,594,91.77v401.45C594,543.36,553.36,584,503.23,584z"/>
</g>
<g>
	<g>
		<path class="st1" d="M504,90.15V252H342V90.15H504 M531,63.15H315V279h216V63.15L531,63.15z"/>
	</g>
</g>
<rect x="207" y="63" width="72" height="216"/>
<rect x="207" y="306" width="72" height="144"/>
<rect x="63" y="306" width="72" height="144"/>
<g>
	<rect x="387" y="135" class="st1" width="72" height="72"/>
</g>
<rect x="63" y="243" width="144" height="36"/>
<rect x="63" y="135" width="72" height="117"/>
<rect x="135" y="450" width="72" height="72"/>
<rect x="315" y="486" width="216" height="36"/>
<rect x="315" y="306" width="216" height="36"/>
<rect x="387" y="306" width="72" height="189"/>
</svg>
