<?xml version="1.0" encoding="utf-8"?>
<!-- Generator: Adobe Illustrator 25.3.1, SVG Export Plug-In . SVG Version: 6.00 Build 0)  -->
<svg version="1.1" id="Layer_1" xmlns="http://www.w3.org/2000/svg" xmlns:xlink="http://www.w3.org/1999/xlink" x="0px" y="0px"
	 width="3510px" height="477px" viewBox="0 0 3510 477" style="enable-background:new 0 0 3510 477;" xml:space="preserve">
<style type="text/css">
	.st0{fill:#9E005D;}
</style>
<g>
	<g>
		<path class="st0" d="M450,36.15V198H288V36.15H450 M477,9.15H261V225h216V9.15L477,9.15z"/>
	</g>
</g>
<rect x="153" y="9" width="72" height="216"/>
<rect x="153" y="252" width="72" height="144"/>
<rect x="9" y="252" width="72" height="144"/>
<g>
	<rect x="333" y="81" class="st0" width="72" height="72"/>
</g>
<rect x="9" y="189" width="144" height="36"/>
<rect x="9" y="81" width="72" height="117"/>
<rect x="81" y="396" width="72" height="72"/>
<rect x="261" y="432" width="216" height="36"/>
<rect x="261" y="252" width="216" height="36"/>
<rect x="333" y="252" width="72" height="189"/>
<g>
	<path class="st0" d="M564.71,188.23l21.63-15.73c8.17,14.63,18.73,20.81,31.19,20.81c18.89,0,28.51-10.41,28.51-38.51V23.77h31.15
		v133.75c0,34.71-16.73,62.93-56.23,62.93C594.74,220.46,576.64,209.5,564.71,188.23z"/>
	<path class="st0" d="M713.48,144.85c0-48.13,32.32-75.89,68.12-75.89c35.8,0,68.12,27.76,68.12,75.89
		c0,47.85-32.32,75.61-68.12,75.61C745.8,220.46,713.48,192.7,713.48,144.85z M817.96,144.85c0-30.25-14.01-50.57-36.35-50.57
		c-22.33,0-36.35,20.32-36.35,50.57c0,30.25,14.02,50.29,36.35,50.29C803.94,195.14,817.96,175.1,817.96,144.85z"/>
	<path class="st0" d="M882.93,163.36V72.5h30.87v86.89c0,24.76,7.24,34.51,23.98,34.51c13.36,0,22.3-6.34,34.11-21.38V72.5h30.87
		v144.42h-25.35L975,195.21h-0.9c-12.92,15.28-27.05,25.25-46.83,25.25C896.5,220.46,882.93,199.94,882.93,163.36z"/>
	<path class="st0" d="M1043.46,72.5h25.35l2.42,25.93h0.9c10.22-18.66,25.34-29.47,41.05-29.47c7.05,0,11.64,0.9,16.05,2.95
		l-5.46,26.87c-5.03-1.46-8.63-2.36-14.56-2.36c-11.74,0-25.84,8.17-34.88,30.94v89.56h-30.87V72.5z"/>
	<path class="st0" d="M1156,72.5h25.35l2.42,19.94h0.9c13.2-12.89,27.95-23.48,47.73-23.48c30.77,0,44.34,20.52,44.34,57.1v90.86
		h-30.87v-86.89c0-24.76-7.24-34.51-23.98-34.51c-13.36,0-22.3,6.65-35.01,19.32v102.08H1156V72.5z"/>
	<path class="st0" d="M1307.51,178.52c0-31.1,26.12-47.09,86.12-53.55c-0.34-16.5-6.55-31.01-27.37-31.01
		c-15.1,0-29.1,6.93-41.37,14.63l-11.54-20.73c15.05-9.59,35.45-18.91,58.46-18.91c35.83,0,52.69,22.61,52.69,61.47v86.49h-25.35
		l-2.42-16.4h-0.9c-13.2,11.18-28.42,19.94-45.75,19.94C1325.15,220.46,1307.51,203.97,1307.51,178.52z M1393.63,179.32v-34.89
		c-42.1,5.22-56.2,15.97-56.2,31.78c0,13.92,9.48,19.85,22.24,19.85C1372.13,196.07,1381.88,189.98,1393.63,179.32z"/>
	<path class="st0" d="M1464.51,182.35V7.96h30.87v176.15c0,8.07,3.6,11.02,7.14,11.02c1.49,0,2.67,0,5.31-0.59l3.94,23.18
		c-3.91,1.52-9.09,2.73-16.67,2.73C1472.92,220.46,1464.51,206.15,1464.51,182.35z"/>
	<path class="st0" d="M1608.59,144.85c0-48.13,32.32-75.89,68.12-75.89s68.12,27.76,68.12,75.89c0,47.85-32.32,75.61-68.12,75.61
		S1608.59,192.7,1608.59,144.85z M1713.06,144.85c0-30.25-14.02-50.57-36.35-50.57c-22.34,0-36.35,20.32-36.35,50.57
		c0,30.25,14.01,50.29,36.35,50.29C1699.04,195.14,1713.06,175.1,1713.06,144.85z"/>
	<path class="st0" d="M1763.8,73.99l21.02-1.49h58.3v24.7h-79.32V73.99z M1783.27,55.06c0-29.75,13.63-50.64,46.1-50.64
		c9.93,0,19.18,2.39,25.67,5.03l-6.05,23.18c-5.28-2.33-10.87-3.51-15.87-3.51c-12.52,0-18.98,8.2-18.98,25.56v162.23h-30.87V55.06z
		"/>
	<path class="st0" d="M1921.59,23.77h32.98l28.46,99.45c6.43,22.17,10.81,40.96,17.52,63.15h1.18
		c6.71-22.19,11.24-40.97,17.52-63.15l28.14-99.45h31.77l-60.28,193.15h-36.74L1921.59,23.77z"/>
	<path class="st0" d="M2102.88,27.72c0-10.83,8.44-18.09,19.64-18.09s19.65,7.26,19.65,18.09c0,10.55-8.44,18.09-19.65,18.09
		S2102.88,38.27,2102.88,27.72z M2106.95,72.5h30.87v144.42h-30.87V72.5z"/>
	<path class="st0" d="M2166.26,200.37l14.59-19.8c12.73,10.03,25.24,16.43,40.75,16.43c16.78,0,24.82-8.27,24.82-18.92
		c0-12.99-16.09-18.77-31.68-24.67c-19.35-7.21-41.37-17.79-41.37-41.98c0-24.43,19.68-42.47,51.69-42.47
		c19.43,0,35.42,7.92,47,16.95l-14.3,19.18c-10.06-7.39-20.25-12.67-32.05-12.67c-15.69,0-23.05,7.82-23.05,17.49
		c0,12.15,14.94,16.78,30.81,22.65c19.94,7.47,42.24,16.58,42.24,43.69c0,24.37-19.31,44.21-55.02,44.21
		C2200.69,220.46,2180.2,211.92,2166.26,200.37z"/>
	<path class="st0" d="M2304.89,163.36V72.5h30.87v86.89c0,24.76,7.24,34.51,23.98,34.51c13.36,0,22.3-6.34,34.11-21.38V72.5h30.87
		v144.42h-25.35l-2.42-21.71h-0.9c-12.92,15.28-27.05,25.25-46.83,25.25C2318.46,220.46,2304.89,199.94,2304.89,163.36z"/>
	<path class="st0" d="M2457.25,178.52c0-31.1,26.12-47.09,86.12-53.55c-0.34-16.5-6.55-31.01-27.37-31.01
		c-15.1,0-29.11,6.93-41.37,14.63l-11.54-20.73c15.05-9.59,35.46-18.91,58.46-18.91c35.83,0,52.69,22.61,52.69,61.47v86.49h-25.35
		l-2.42-16.4h-0.9c-13.2,11.18-28.42,19.94-45.75,19.94C2474.89,220.46,2457.25,203.97,2457.25,178.52z M2543.37,179.32v-34.89
		c-42.1,5.22-56.2,15.97-56.2,31.78c0,13.92,9.48,19.85,22.24,19.85C2521.87,196.07,2531.62,189.98,2543.37,179.32z"/>
	<path class="st0" d="M2614.25,182.35V7.96h30.87v176.15c0,8.07,3.6,11.02,7.14,11.02c1.49,0,2.67,0,5.31-0.59l3.94,23.18
		c-3.91,1.52-9.09,2.73-16.66,2.73C2622.66,220.46,2614.25,206.15,2614.25,182.35z"/>
	<path class="st0" d="M2683.66,27.72c0-10.83,8.44-18.09,19.65-18.09c11.2,0,19.64,7.26,19.64,18.09c0,10.55-8.44,18.09-19.64,18.09
		C2692.1,45.81,2683.66,38.27,2683.66,27.72z M2687.73,72.5h30.87v144.42h-30.87V72.5z"/>
	<path class="st0" d="M2750.63,200.41l70.6-103.21h-62.71V72.5h101.5V89l-70.6,103.21h72.93v24.7h-111.71V200.41z"/>
	<path class="st0" d="M2886.26,178.52c0-31.1,26.12-47.09,86.12-53.55c-0.34-16.5-6.55-31.01-27.37-31.01
		c-15.1,0-29.11,6.93-41.37,14.63l-11.54-20.73c15.05-9.59,35.46-18.91,58.46-18.91c35.83,0,52.69,22.61,52.69,61.47v86.49h-25.35
		l-2.42-16.4h-0.9c-13.2,11.18-28.42,19.94-45.75,19.94C2903.9,220.46,2886.26,203.97,2886.26,178.52z M2972.38,179.32v-34.89
		c-42.1,5.22-56.2,15.97-56.2,31.78c0,13.92,9.48,19.85,22.24,19.85C2950.88,196.07,2960.63,189.98,2972.38,179.32z"/>
	<path class="st0" d="M3046.86,169.51V97.2h-20.87V73.99l22.42-1.49l3.66-39.75h25.66V72.5h37.55v24.7h-37.55v72.41
		c0,17.2,6.3,26.15,21.06,26.15c5,0,11.12-1.74,15.5-3.48l5.43,22.87c-7.95,2.64-17.88,5.31-28.65,5.31
		C3058.59,220.46,3046.86,199.9,3046.86,169.51z"/>
	<path class="st0" d="M3145,27.72c0-10.83,8.44-18.09,19.64-18.09s19.65,7.26,19.65,18.09c0,10.55-8.44,18.09-19.65,18.09
		S3145,38.27,3145,27.72z M3149.07,72.5h30.87v144.42h-30.87V72.5z"/>
	<path class="st0" d="M3212.79,144.85c0-48.13,32.32-75.89,68.12-75.89c35.8,0,68.12,27.76,68.12,75.89
		c0,47.85-32.32,75.61-68.12,75.61C3245.11,220.46,3212.79,192.7,3212.79,144.85z M3317.26,144.85c0-30.25-14.01-50.57-36.35-50.57
		c-22.33,0-36.35,20.32-36.35,50.57c0,30.25,14.02,50.29,36.35,50.29C3303.25,195.14,3317.26,175.1,3317.26,144.85z"/>
	<path class="st0" d="M3383.18,72.5h25.35l2.42,19.94h0.9c13.2-12.89,27.95-23.48,47.73-23.48c30.77,0,44.34,20.52,44.34,57.1v90.86
		h-30.87v-86.89c0-24.76-7.24-34.51-23.98-34.51c-13.36,0-22.3,6.65-35.01,19.32v102.08h-30.87V72.5z"/>
</g>
<g>
	<g>
		<path class="st0" d="M590.3,430.53c0-31.1,26.12-47.09,86.12-53.55c-0.34-16.5-6.55-31.01-27.37-31.01
			c-15.1,0-29.11,6.93-41.37,14.63l-11.54-20.73c15.05-9.59,35.45-18.91,58.46-18.91c35.83,0,52.69,22.61,52.69,61.48v86.49h-25.35
			l-2.42-16.4h-0.9c-13.2,11.18-28.42,19.94-45.75,19.94C607.94,472.46,590.3,455.97,590.3,430.53z M676.41,431.32v-34.89
			c-42.1,5.22-56.2,15.97-56.2,31.78c0,13.92,9.48,19.85,22.24,19.85C654.91,448.07,664.67,441.98,676.41,431.32z"/>
		<path class="st0" d="M747.41,324.5h25.35l2.42,19.94h0.9c13.2-12.89,27.95-23.48,47.73-23.48c30.77,0,44.34,20.52,44.34,57.1
			v90.86h-30.87v-86.89c0-24.76-7.24-34.51-23.98-34.51c-13.36,0-22.3,6.65-35.01,19.32v102.08h-30.87V324.5z"/>
		<path class="st0" d="M902.26,396.85c0-46.98,29.53-75.89,61.58-75.89c16.49,0,27.05,6.18,38.7,16.15l-1.21-23.76v-53.39h30.87
			v208.96h-25.35l-2.42-16.09h-0.9c-10.87,10.87-25.87,19.63-41.93,19.63C925.57,472.46,902.26,444.64,902.26,396.85z
			 M1001.32,429.49v-69.95c-10.66-9.51-20.85-12.96-31.25-12.96c-19.85,0-36.04,18.95-36.04,49.95c0,32.43,12.74,50.29,34.98,50.29
			C980.88,446.83,990.97,441.39,1001.32,429.49z"/>
		<path class="st0" d="M1155.29,275.77h31.15v193.15h-31.15V275.77z"/>
		<path class="st0" d="M1229.96,324.5h25.35l2.42,19.94h0.9c13.2-12.89,27.95-23.48,47.73-23.48c30.77,0,44.34,20.52,44.34,57.1
			v90.86h-30.87v-86.89c0-24.76-7.24-34.51-23.98-34.51c-13.36,0-22.3,6.65-35.01,19.32v102.08h-30.87V324.5z"/>
		<path class="st0" d="M1394.42,421.51V349.2h-20.87v-23.21l22.42-1.49l3.66-39.75h25.66v39.75h37.55v24.7h-37.55v72.41
			c0,17.2,6.3,26.15,21.06,26.15c5,0,11.12-1.74,15.5-3.48l5.43,22.87c-7.95,2.64-17.88,5.31-28.65,5.31
			C1406.15,472.46,1394.42,451.91,1394.42,421.51z"/>
		<path class="st0" d="M1480.74,396.85c0-46.95,32.29-75.89,66.04-75.89c38.34,0,58.99,27.66,58.99,68.31
			c0,6.05-0.62,12.1-1.37,15.64h-93.45c2.48,27.21,19.66,43.47,44.29,43.47c12.83,0,23.67-4.07,34.29-10.81l10.64,19.46
			c-13.41,8.97-30.17,15.43-48.93,15.43C1511.82,472.46,1480.74,444.42,1480.74,396.85z M1578.93,383.62
			c0-24.36-10.88-38.59-31.53-38.59c-17.92,0-33.8,13.77-36.75,38.59H1578.93z"/>
		<path class="st0" d="M1639.71,324.5h25.35l2.42,25.93h0.9c10.21-18.66,25.34-29.47,41.05-29.47c7.04,0,11.64,0.9,16.05,2.95
			l-5.46,26.87c-5.03-1.46-8.63-2.36-14.56-2.36c-11.74,0-25.84,8.17-34.88,30.94v89.56h-30.87V324.5z"/>
		<path class="st0" d="M1743.46,430.53c0-31.1,26.12-47.09,86.12-53.55c-0.34-16.5-6.55-31.01-27.37-31.01
			c-15.1,0-29.11,6.93-41.37,14.63l-11.54-20.73c15.05-9.59,35.46-18.91,58.46-18.91c35.83,0,52.69,22.61,52.69,61.48v86.49h-25.35
			l-2.42-16.4h-0.9c-13.2,11.18-28.42,19.94-45.75,19.94C1761.1,472.46,1743.46,455.97,1743.46,430.53z M1829.57,431.32v-34.89
			c-42.1,5.22-56.2,15.97-56.2,31.78c0,13.92,9.48,19.85,22.24,19.85C1808.07,448.07,1817.83,441.98,1829.57,431.32z"/>
		<path class="st0" d="M1893.46,396.85c0-48.13,33.53-75.89,71.5-75.89c18.54,0,31.86,7.3,42.23,16.46l-15.21,20.14
			c-7.89-6.99-15.69-11.28-25.47-11.28c-24.2,0-41.28,20.32-41.28,50.57c0,30.25,16.59,50.29,40.35,50.29
			c11.9,0,22.68-5.81,31.15-13.08l12.75,20.45c-13.35,11.86-30.27,17.95-47.01,17.95C1923.39,472.46,1893.46,444.7,1893.46,396.85z"
			/>
		<path class="st0" d="M2051.52,421.51V349.2h-20.87v-23.21l22.42-1.49l3.66-39.75h25.66v39.75h37.55v24.7h-37.55v72.41
			c0,17.2,6.3,26.15,21.06,26.15c5,0,11.12-1.74,15.5-3.48l5.43,22.87c-7.95,2.64-17.88,5.31-28.65,5.31
			C2063.25,472.46,2051.52,451.91,2051.52,421.51z"/>
		<path class="st0" d="M2149.66,279.72c0-10.83,8.44-18.09,19.65-18.09c11.2,0,19.64,7.26,19.64,18.09
			c0,10.55-8.44,18.09-19.64,18.09C2158.1,297.81,2149.66,290.27,2149.66,279.72z M2153.73,324.5h30.87v144.42h-30.87V324.5z"/>
		<path class="st0" d="M2217.45,396.85c0-48.13,32.32-75.89,68.12-75.89s68.12,27.76,68.12,75.89c0,47.85-32.32,75.61-68.12,75.61
			S2217.45,444.7,2217.45,396.85z M2321.92,396.85c0-30.25-14.02-50.57-36.35-50.57c-22.34,0-36.35,20.32-36.35,50.57
			c0,30.25,14.01,50.29,36.35,50.29C2307.91,447.14,2321.92,427.1,2321.92,396.85z"/>
		<path class="st0" d="M2387.84,324.5h25.35l2.42,19.94h0.9c13.2-12.89,27.95-23.48,47.73-23.48c30.77,0,44.34,20.52,44.34,57.1
			v90.86h-30.87v-86.89c0-24.76-7.24-34.51-23.98-34.51c-13.36,0-22.3,6.65-35.01,19.32v102.08h-30.87V324.5z"/>
	</g>
</g>
<g>
</g>
<g>
</g>
<g>
</g>
<g>
</g>
<g>
</g>
<g>
</g>
<g>
</g>
<g>
</g>
<g>
</g>
<g>
</g>
<g>
</g>
<g>
</g>
<g>
</g>
<g>
</g>
<g>
</g>
</svg>
