<?xml version="1.0" encoding="utf-8"?>
<!-- Generator: Adobe Illustrator 25.3.1, SVG Export Plug-In . SVG Version: 6.00 Build 0)  -->
<svg version="1.1" id="Layer_1" xmlns="http://www.w3.org/2000/svg" xmlns:xlink="http://www.w3.org/1999/xlink" x="0px" y="0px"
	 width="3825px" height="765px" viewBox="0 0 3825 765" style="enable-background:new 0 0 3825 765;" xml:space="preserve">
<style type="text/css">
	.st0{fill:#9E005D;}
</style>
<g>
	<g>
		<path class="st0" d="M585,171.15V333H423V171.15H585 M612,144.15H396V360h216V144.15L612,144.15z"/>
	</g>
</g>
<rect x="288" y="144" width="72" height="216"/>
<rect x="288" y="387" width="72" height="144"/>
<rect x="144" y="387" width="72" height="144"/>
<g>
	<rect x="468" y="216" class="st0" width="72" height="72"/>
</g>
<rect x="144" y="324" width="144" height="36"/>
<rect x="144" y="216" width="72" height="117"/>
<rect x="216" y="531" width="72" height="72"/>
<rect x="396" y="567" width="216" height="36"/>
<rect x="396" y="387" width="216" height="36"/>
<rect x="468" y="387" width="72" height="189"/>
<g>
	<path class="st0" d="M699.71,323.23l21.63-15.73c8.17,14.63,18.73,20.81,31.19,20.81c18.89,0,28.51-10.41,28.51-38.51V158.77h31.15
		v133.75c0,34.71-16.73,62.93-56.23,62.93C729.74,355.46,711.64,344.5,699.71,323.23z"/>
	<path class="st0" d="M848.48,279.85c0-48.13,32.32-75.89,68.12-75.89c35.8,0,68.12,27.76,68.12,75.89
		c0,47.85-32.32,75.61-68.12,75.61C880.8,355.46,848.48,327.7,848.48,279.85z M952.96,279.85c0-30.25-14.01-50.57-36.35-50.57
		c-22.33,0-36.35,20.32-36.35,50.57c0,30.25,14.02,50.29,36.35,50.29C938.94,330.14,952.96,310.1,952.96,279.85z"/>
	<path class="st0" d="M1017.93,298.36V207.5h30.87v86.89c0,24.76,7.24,34.51,23.98,34.51c13.36,0,22.3-6.34,34.11-21.38V207.5h30.87
		v144.42h-25.35l-2.42-21.71h-0.9c-12.92,15.28-27.05,25.25-46.83,25.25C1031.5,355.46,1017.93,334.94,1017.93,298.36z"/>
	<path class="st0" d="M1178.46,207.5h25.35l2.42,25.93h0.9c10.22-18.66,25.34-29.47,41.05-29.47c7.05,0,11.64,0.9,16.05,2.95
		l-5.46,26.87c-5.03-1.46-8.63-2.36-14.56-2.36c-11.74,0-25.84,8.17-34.88,30.94v89.56h-30.87V207.5z"/>
	<path class="st0" d="M1291,207.5h25.35l2.42,19.94h0.9c13.2-12.89,27.95-23.48,47.73-23.48c30.77,0,44.34,20.52,44.34,57.1v90.86
		h-30.87v-86.89c0-24.76-7.24-34.51-23.98-34.51c-13.36,0-22.3,6.65-35.01,19.32v102.08H1291V207.5z"/>
	<path class="st0" d="M1442.52,313.52c0-31.1,26.12-47.09,86.12-53.55c-0.34-16.5-6.55-31.01-27.37-31.01
		c-15.1,0-29.11,6.93-41.37,14.63l-11.54-20.73c15.05-9.59,35.46-18.91,58.46-18.91c35.83,0,52.69,22.61,52.69,61.47v86.49h-25.35
		l-2.42-16.4h-0.9c-13.2,11.18-28.42,19.94-45.75,19.94C1460.15,355.46,1442.52,338.97,1442.52,313.52z M1528.63,314.32v-34.89
		c-42.1,5.22-56.2,15.97-56.2,31.78c0,13.92,9.48,19.85,22.24,19.85C1507.13,331.07,1516.88,324.98,1528.63,314.32z"/>
	<path class="st0" d="M1599.51,317.35V142.96h30.87v176.15c0,8.07,3.6,11.02,7.14,11.02c1.49,0,2.67,0,5.31-0.59l3.94,23.18
		c-3.91,1.52-9.09,2.73-16.66,2.73C1607.92,355.46,1599.51,341.15,1599.51,317.35z"/>
	<path class="st0" d="M1743.59,279.85c0-48.13,32.32-75.89,68.12-75.89c35.8,0,68.12,27.76,68.12,75.89
		c0,47.85-32.32,75.61-68.12,75.61C1775.91,355.46,1743.59,327.7,1743.59,279.85z M1848.06,279.85c0-30.25-14.01-50.57-36.35-50.57
		c-22.33,0-36.35,20.32-36.35,50.57c0,30.25,14.02,50.29,36.35,50.29C1834.04,330.14,1848.06,310.1,1848.06,279.85z"/>
	<path class="st0" d="M1898.8,208.99l21.02-1.49h58.3v24.7h-79.32V208.99z M1918.27,190.06c0-29.75,13.63-50.64,46.1-50.64
		c9.93,0,19.18,2.39,25.67,5.03l-6.05,23.18c-5.28-2.33-10.87-3.51-15.87-3.51c-12.52,0-18.98,8.2-18.98,25.56v162.23h-30.87V190.06
		z"/>
	<path class="st0" d="M2056.59,158.77h32.98l28.46,99.45c6.43,22.17,10.81,40.96,17.52,63.15h1.18
		c6.71-22.19,11.24-40.97,17.52-63.15l28.14-99.45h31.77l-60.28,193.15h-36.74L2056.59,158.77z"/>
	<path class="st0" d="M2237.88,162.72c0-10.83,8.44-18.09,19.64-18.09s19.65,7.26,19.65,18.09c0,10.55-8.44,18.09-19.65,18.09
		S2237.88,173.27,2237.88,162.72z M2241.95,207.5h30.87v144.42h-30.87V207.5z"/>
	<path class="st0" d="M2301.26,335.37l14.59-19.8c12.73,10.03,25.24,16.43,40.75,16.43c16.78,0,24.82-8.27,24.82-18.92
		c0-12.99-16.09-18.77-31.68-24.67c-19.35-7.21-41.37-17.79-41.37-41.98c0-24.43,19.68-42.47,51.69-42.47
		c19.43,0,35.42,7.92,47,16.95l-14.3,19.18c-10.06-7.39-20.25-12.67-32.05-12.67c-15.69,0-23.05,7.82-23.05,17.49
		c0,12.15,14.94,16.78,30.81,22.65c19.94,7.47,42.24,16.58,42.24,43.69c0,24.37-19.31,44.21-55.02,44.21
		C2335.69,355.46,2315.2,346.92,2301.26,335.37z"/>
	<path class="st0" d="M2439.89,298.36V207.5h30.87v86.89c0,24.76,7.24,34.51,23.98,34.51c13.36,0,22.3-6.34,34.11-21.38V207.5h30.87
		v144.42h-25.35l-2.42-21.71h-0.9c-12.92,15.28-27.05,25.25-46.83,25.25C2453.46,355.46,2439.89,334.94,2439.89,298.36z"/>
	<path class="st0" d="M2592.25,313.52c0-31.1,26.12-47.09,86.12-53.55c-0.34-16.5-6.55-31.01-27.37-31.01
		c-15.1,0-29.1,6.93-41.37,14.63l-11.54-20.73c15.05-9.59,35.45-18.91,58.46-18.91c35.83,0,52.69,22.61,52.69,61.47v86.49h-25.35
		l-2.42-16.4h-0.9c-13.2,11.18-28.42,19.94-45.75,19.94C2609.89,355.46,2592.25,338.97,2592.25,313.52z M2678.37,314.32v-34.89
		c-42.1,5.22-56.2,15.97-56.2,31.78c0,13.92,9.48,19.85,22.24,19.85C2656.87,331.07,2666.62,324.98,2678.37,314.32z"/>
	<path class="st0" d="M2749.25,317.35V142.96h30.87v176.15c0,8.07,3.6,11.02,7.14,11.02c1.49,0,2.67,0,5.31-0.59l3.94,23.18
		c-3.91,1.52-9.09,2.73-16.66,2.73C2757.66,355.46,2749.25,341.15,2749.25,317.35z"/>
	<path class="st0" d="M2818.66,162.72c0-10.83,8.44-18.09,19.65-18.09c11.2,0,19.64,7.26,19.64,18.09
		c0,10.55-8.44,18.09-19.64,18.09C2827.1,180.81,2818.66,173.27,2818.66,162.72z M2822.73,207.5h30.87v144.42h-30.87V207.5z"/>
	<path class="st0" d="M2885.63,335.41l70.6-103.21h-62.71v-24.7h101.5V224l-70.6,103.21h72.93v24.7h-111.72V335.41z"/>
	<path class="st0" d="M3021.26,313.52c0-31.1,26.12-47.09,86.12-53.55c-0.34-16.5-6.55-31.01-27.37-31.01
		c-15.1,0-29.1,6.93-41.37,14.63l-11.54-20.73c15.05-9.59,35.45-18.91,58.46-18.91c35.83,0,52.69,22.61,52.69,61.47v86.49h-25.35
		l-2.42-16.4h-0.9c-13.2,11.18-28.42,19.94-45.75,19.94C3038.9,355.46,3021.26,338.97,3021.26,313.52z M3107.38,314.32v-34.89
		c-42.1,5.22-56.2,15.97-56.2,31.78c0,13.92,9.48,19.85,22.24,19.85C3085.88,331.07,3095.63,324.98,3107.38,314.32z"/>
	<path class="st0" d="M3181.86,304.51V232.2h-20.87v-23.21l22.42-1.49l3.66-39.75h25.66v39.75h37.55v24.7h-37.55v72.41
		c0,17.2,6.3,26.15,21.06,26.15c5,0,11.12-1.74,15.5-3.48l5.43,22.87c-7.95,2.64-17.88,5.31-28.65,5.31
		C3193.59,355.46,3181.86,334.9,3181.86,304.51z"/>
	<path class="st0" d="M3280,162.72c0-10.83,8.44-18.09,19.64-18.09s19.65,7.26,19.65,18.09c0,10.55-8.44,18.09-19.65,18.09
		S3280,173.27,3280,162.72z M3284.07,207.5h30.87v144.42h-30.87V207.5z"/>
	<path class="st0" d="M3347.79,279.85c0-48.13,32.32-75.89,68.12-75.89s68.12,27.76,68.12,75.89c0,47.85-32.32,75.61-68.12,75.61
		S3347.79,327.7,3347.79,279.85z M3452.26,279.85c0-30.25-14.02-50.57-36.35-50.57c-22.34,0-36.35,20.32-36.35,50.57
		c0,30.25,14.01,50.29,36.35,50.29C3438.25,330.14,3452.26,310.1,3452.26,279.85z"/>
	<path class="st0" d="M3518.18,207.5h25.35l2.42,19.94h0.9c13.2-12.89,27.95-23.48,47.73-23.48c30.77,0,44.34,20.52,44.34,57.1
		v90.86h-30.87v-86.89c0-24.76-7.24-34.51-23.98-34.51c-13.36,0-22.3,6.65-35.01,19.32v102.08h-30.87V207.5z"/>
</g>
<g>
	<g>
		<path class="st0" d="M725.3,565.53c0-31.1,26.12-47.09,86.12-53.55c-0.34-16.5-6.55-31.01-27.37-31.01
			c-15.1,0-29.11,6.93-41.37,14.63l-11.54-20.73c15.05-9.59,35.45-18.91,58.46-18.91c35.83,0,52.69,22.61,52.69,61.48v86.49h-25.35
			l-2.42-16.4h-0.9c-13.2,11.18-28.42,19.94-45.75,19.94C742.94,607.46,725.3,590.97,725.3,565.53z M811.41,566.32v-34.89
			c-42.1,5.22-56.2,15.97-56.2,31.78c0,13.92,9.48,19.85,22.24,19.85C789.91,583.07,799.67,576.98,811.41,566.32z"/>
		<path class="st0" d="M882.41,459.5h25.35l2.42,19.94h0.9c13.2-12.89,27.95-23.48,47.73-23.48c30.77,0,44.34,20.52,44.34,57.1
			v90.86h-30.87v-86.89c0-24.76-7.24-34.51-23.98-34.51c-13.36,0-22.3,6.65-35.01,19.32v102.08h-30.87V459.5z"/>
		<path class="st0" d="M1037.26,531.85c0-46.98,29.53-75.89,61.58-75.89c16.49,0,27.05,6.18,38.7,16.15l-1.21-23.76v-53.39h30.87
			v208.96h-25.35l-2.42-16.09h-0.9c-10.87,10.87-25.87,19.63-41.93,19.63C1060.57,607.46,1037.26,579.64,1037.26,531.85z
			 M1136.32,564.49v-69.95c-10.66-9.51-20.85-12.96-31.25-12.96c-19.85,0-36.04,18.95-36.04,49.95c0,32.43,12.74,50.29,34.98,50.29
			C1115.88,581.83,1125.97,576.39,1136.32,564.49z"/>
		<path class="st0" d="M1290.29,410.77h31.15v193.15h-31.15V410.77z"/>
		<path class="st0" d="M1364.96,459.5h25.35l2.42,19.94h0.9c13.2-12.89,27.95-23.48,47.73-23.48c30.77,0,44.34,20.52,44.34,57.1
			v90.86h-30.87v-86.89c0-24.76-7.24-34.51-23.98-34.51c-13.36,0-22.3,6.65-35.01,19.32v102.08h-30.87V459.5z"/>
		<path class="st0" d="M1529.42,556.51V484.2h-20.87v-23.21l22.42-1.49l3.66-39.75h25.66v39.75h37.55v24.7h-37.55v72.41
			c0,17.2,6.3,26.15,21.06,26.15c5,0,11.12-1.74,15.5-3.48l5.43,22.87c-7.95,2.64-17.88,5.31-28.65,5.31
			C1541.15,607.46,1529.42,586.91,1529.42,556.51z"/>
		<path class="st0" d="M1615.74,531.85c0-46.95,32.29-75.89,66.04-75.89c38.34,0,58.99,27.66,58.99,68.31
			c0,6.05-0.62,12.1-1.37,15.64h-93.45c2.48,27.21,19.66,43.47,44.29,43.47c12.83,0,23.67-4.07,34.29-10.81l10.64,19.46
			c-13.41,8.97-30.17,15.43-48.93,15.43C1646.82,607.46,1615.74,579.42,1615.74,531.85z M1713.93,518.62
			c0-24.36-10.88-38.59-31.53-38.59c-17.92,0-33.8,13.77-36.75,38.59H1713.93z"/>
		<path class="st0" d="M1774.71,459.5h25.35l2.42,25.93h0.9c10.21-18.66,25.34-29.47,41.05-29.47c7.04,0,11.64,0.9,16.05,2.95
			l-5.46,26.87c-5.03-1.46-8.63-2.36-14.56-2.36c-11.74,0-25.84,8.17-34.88,30.94v89.56h-30.87V459.5z"/>
		<path class="st0" d="M1878.46,565.53c0-31.1,26.12-47.09,86.12-53.55c-0.34-16.5-6.55-31.01-27.37-31.01
			c-15.1,0-29.1,6.93-41.37,14.63l-11.54-20.73c15.05-9.59,35.45-18.91,58.46-18.91c35.83,0,52.69,22.61,52.69,61.48v86.49h-25.35
			l-2.42-16.4h-0.9c-13.2,11.18-28.42,19.94-45.75,19.94C1896.1,607.46,1878.46,590.97,1878.46,565.53z M1964.57,566.32v-34.89
			c-42.1,5.22-56.2,15.97-56.2,31.78c0,13.92,9.48,19.85,22.24,19.85C1943.07,583.07,1952.83,576.98,1964.57,566.32z"/>
		<path class="st0" d="M2028.46,531.85c0-48.13,33.53-75.89,71.5-75.89c18.54,0,31.86,7.3,42.23,16.46l-15.21,20.14
			c-7.89-6.99-15.69-11.28-25.47-11.28c-24.2,0-41.28,20.32-41.28,50.57c0,30.25,16.59,50.29,40.35,50.29
			c11.9,0,22.68-5.81,31.15-13.08l12.75,20.45c-13.35,11.86-30.27,17.95-47.01,17.95C2058.39,607.46,2028.46,579.7,2028.46,531.85z"
			/>
		<path class="st0" d="M2186.52,556.51V484.2h-20.87v-23.21l22.42-1.49l3.66-39.75h25.66v39.75h37.55v24.7h-37.55v72.41
			c0,17.2,6.3,26.15,21.06,26.15c5,0,11.12-1.74,15.5-3.48l5.43,22.87c-7.95,2.64-17.88,5.31-28.65,5.31
			C2198.25,607.46,2186.52,586.91,2186.52,556.51z"/>
		<path class="st0" d="M2284.66,414.72c0-10.83,8.44-18.09,19.65-18.09c11.2,0,19.64,7.26,19.64,18.09
			c0,10.55-8.44,18.09-19.64,18.09C2293.1,432.81,2284.66,425.27,2284.66,414.72z M2288.73,459.5h30.87v144.42h-30.87V459.5z"/>
		<path class="st0" d="M2352.45,531.85c0-48.13,32.32-75.89,68.12-75.89c35.8,0,68.12,27.76,68.12,75.89
			c0,47.85-32.32,75.61-68.12,75.61C2384.77,607.46,2352.45,579.7,2352.45,531.85z M2456.92,531.85c0-30.25-14.01-50.57-36.35-50.57
			c-22.33,0-36.35,20.32-36.35,50.57c0,30.25,14.02,50.29,36.35,50.29C2442.91,582.14,2456.92,562.1,2456.92,531.85z"/>
		<path class="st0" d="M2522.84,459.5h25.35l2.42,19.94h0.9c13.2-12.89,27.95-23.48,47.73-23.48c30.77,0,44.34,20.52,44.34,57.1
			v90.86h-30.87v-86.89c0-24.76-7.24-34.51-23.98-34.51c-13.36,0-22.3,6.65-35.01,19.32v102.08h-30.87V459.5z"/>
	</g>
</g>
<g>
</g>
<g>
</g>
<g>
</g>
<g>
</g>
<g>
</g>
<g>
</g>
<g>
</g>
<g>
</g>
<g>
</g>
<g>
</g>
<g>
</g>
<g>
</g>
<g>
</g>
<g>
</g>
<g>
</g>
</svg>
